<svg xmlns="http://www.w3.org/2000/svg"><symbol id="001-punk-young-head" viewBox="0 0 481.226 481.226"><title>001-punk-young-head</title><path d="M5.101,481.226h235.511h235.513c-26.954-66.567-113.018-98.735-173.361-113.683c-5.374-7.69-9.313-20.285-1.01-69.369 c14.189-14.058,25.928-27.078,28.648-30.127l0.733-0.822l0.63-3.41c2.713-5.289,11.99-24.103,20.354-49.123h0.008l29.791-19.72 l-18.398-24.547c1.611-9.177,2.689-18.535,3.082-27.892l27.095-35.187l-39.698-28.152l26.609-39.942l-74.578-1.311L290.328,0 l-30.612,27.334c-6.677-0.691-13.152-1.132-19.26-1.116L186.97,0l-15.088,46.526c-0.799,0.583-1.525,1.243-2.298,1.848 l-58.502-1.272c0,0,18.314,69.342,15.699,73.268c-2.613,3.925-48.412,37.942-48.412,37.942l55.902,56.367 c0,0,0.024,0.022,0.062,0.068c5.953,18.152,14.479,34.122,25.013,45.851l1.206,6.616l0.741,0.817 c2.717,3.054,14.459,16.086,28.659,30.144c7.051,41.754,5.252,57.114,1.116,65.626C126.901,376.824,21.672,408.511,5.101,481.226z M193.376,290.508c-1.311-1.302-2.607-2.612-3.896-3.923c-7.867-7.983-15.356-15.962-21.596-22.946l-5.887-32.226 c-0.573-30.06,1.689-72.546,16.643-95.704c12.247-16.675,34.069-22.672,78.982-21.878c74.578,1.311,74.578,100.855,74.578,100.855 h0.4c-0.316,2.008-0.593,3.978-0.945,6.029l-7.851,42.924c-6.24,6.969-13.722,14.963-21.588,22.946 c-1.287,1.311-2.589,2.621-3.896,3.923c-1.318,1.318-2.649,2.625-3.983,3.928c-19.74,19.34-40.126,36.628-48.49,36.628 c-8.369,0-28.749-17.288-48.491-36.628C196.021,293.133,194.695,291.826,193.376,290.508z M192.709,375.538 c2.817-3.551,5.676-7.146,7.574-13.525c2.787-9.354,3.488-24.778-0.948-54.745c17.418,16.406,36.331,31.654,46.506,31.654 c10.171,0,29.086-15.248,46.502-31.654c-4.945,33.365-3.494,48.698,0.169,57.835c1.871,4.677,4.312,7.742,6.765,10.815 l0.865,0.822c2.04,1.383,3.915,2.821,5.574,4.315l0.798,0.737c6.729,6.308,10.295,13.438,10.295,20.623 c0,22.185-31.839,40.234-70.976,40.234c-39.133,0-70.983-18.05-70.983-40.234c0-7.186,3.564-14.315,10.307-20.623l0.894-0.837 c1.659-1.463,3.488-2.874,5.458-4.208L192.709,375.538z"/></symbol><symbol id="002-male-with-long-hair" viewBox="0 0 480.177 480.177"><title>002-male-with-long-hair</title><path d="M475.592,480.169c-26.953-66.56-113.018-98.735-173.361-113.683c-5.373-7.698-9.312-20.278-1.01-69.361 c14.207-14.058,25.937-27.09,28.649-30.144l0.741-0.813l4.532-24.768l10.275-13.141c0,0-9.923,59.384-30.421,73.599 c0,0,92.239-59.861,48.082-206.074C318.922-50.429,145.232-2.346,130.513,63.4c-14.719,65.748-11.776,137.382-47.102,169.767 c0,0,25.514-6.871,38.269-16.683c12.758-9.814,19.626,95.79-0.98,118.063c-18.384,19.86,49.033-31.073,63.814-42.303 c1.587,1.607,3.244,3.25,4.907,4.897c7.057,41.749,5.258,57.113,1.122,65.625c-64.159,13.017-169.396,44.695-185.958,117.41 h235.51h235.496V480.169z M192.844,289.443c-1.311-1.303-2.607-2.613-3.896-3.924c-1.348-1.366-2.667-2.721-3.993-4.087 c-8.712-32.648-35.971-149.211,10.307-177.814c0,0,44.857,59.058,94.204,74.579V149.74c0,0,34.3,38.057,40.463,76.399 l-6.652,36.434c-6.247,6.969-13.741,14.964-21.604,22.946c-1.29,1.311-2.577,2.621-3.896,3.924 c-1.318,1.318-2.652,2.625-3.979,3.927c-19.74,19.34-40.118,36.628-48.489,36.628c-8.36,0-28.741-17.288-48.494-36.628 C195.497,292.068,194.163,290.762,192.844,289.443z M174.334,401.335c0-7.182,3.564-14.311,10.307-20.614l0.786-0.737 c1.665-1.487,3.539-2.934,5.575-4.316l1.176-1.194c2.817-3.551,5.677-7.138,7.576-13.517c2.785-9.354,3.486-24.778-0.948-54.746 c17.418,16.415,36.332,31.655,46.504,31.655c10.175,0,29.086-15.24,46.506-31.655c-4.937,33.366-3.498,48.698,0.169,57.827 c1.883,4.669,4.323,7.751,6.76,10.824l0.874,0.813c2.031,1.383,3.911,2.821,5.574,4.316l0.789,0.737 c6.737,6.315,10.304,13.44,10.304,20.614c0,22.185-31.848,40.234-70.983,40.234C206.161,441.577,174.334,423.523,174.334,401.335z "/></symbol><symbol id="003-person-face-close-up" viewBox="0 0 471.023 471.023"><title>003-person-face-close-up</title><path d="M297.662,356.884c-4.545-6.513-8.055-16.539-4.008-49.195l13.429,5.678c0,0-8.499-21.848,37.458-84.176 C390.502,166.872,394.91,5.597,235.002,0.458C24.712,5.597,92.077,245.902,123.555,271.602 c31.482,25.695,39.347,52.722,39.347,52.722c1.499-3.459,16.226-8.52,25.545-11.409c2.465,23.198,0.682,33.727-2.48,40.227 C121.8,366.166,16.571,397.852,0,470.566h235.511h235.513C444.069,404,358.006,371.832,297.662,356.884z M188.275,279.849 c-1.311-1.303-2.607-2.613-3.896-3.924c-5.658-5.75-11.108-11.469-16.046-16.835c-3.791-8.495-6.937-18.134-9.441-27.409 l-3.729-20.417c16.869,16.839,35.139,22.443,35.139,22.443s-67.994-41.764,16.366-60.392 c69.061-15.254,76.942-66.653,77.532-84.803l0.044-0.008c0,0,28.008,139.604,7.598,187.438c-0.581,1.378-1.21,2.697-1.883,3.923 c-0.786,1.427-1.627,2.729-2.533,3.928c-0.981,1.311-2.04,2.513-3.182,3.519l-0.145,1.446 c-18.045,17.236-35.71,31.663-43.344,31.663c-8.362,0-28.752-17.28-48.492-36.628C190.92,282.474,189.594,281.167,188.275,279.849 z M240.748,431.975c-39.134,0-70.983-18.046-70.983-40.234c0-7.182,3.565-14.311,10.307-20.622l0.894-0.834 c1.659-1.467,3.486-2.877,5.458-4.212l1.176-1.187c2.817-3.55,5.677-7.145,7.574-13.524c2.309-7.742,3.136-19.793,0.852-40.676 h0.016l-0.036-0.172c-0.467-4.284-1.026-8.816-1.777-13.89c17.418,16.406,36.332,31.646,46.504,31.646 c9.346,0,26.04-12.856,42.202-27.659l-0.229,2.477l3.427,1.446c-3.595,27.992-2.08,41.537,1.278,49.917 c1.871,4.668,4.312,7.742,6.765,10.815l0.865,0.822c2.04,1.378,3.915,2.829,5.574,4.315l0.798,0.737 c6.729,6.3,10.295,13.445,10.295,20.622C311.724,413.929,279.885,431.975,240.748,431.975z"/></symbol><symbol id="004-black" viewBox="0 0 471.023 471.023"><title>004-black</title><path d="M471.023,469.238c-26.971-66.567-113.018-98.735-173.361-113.691c-4.629-6.632-8.188-16.935-3.764-51.135 c19.381,36.132,65.266,26.072,65.266,26.072c-6.877-4.904-8.841-14.719,4.896-28.456c13.738-13.737,35.326-25.516,25.516-37.289 c-9.814-11.778-45.14-7.851-7.851-49.069c37.289-41.214,45.14,18.645,0-124.296C336.586-51.574,228.642,19.41,228.642,19.41 C81.447-37.505,119.718,85.158,91.259,99.877c-28.457,14.719-13.737,57.896,9.94,83.102c23.678,25.209,2.817,33.672-13.864,49.372 c-16.683,15.706-9.814,47.107,27.475,52.012c37.289,4.909-68.579,12.527,8.833,49.067c7.654,3.61,35.237-1.15,65.85-8.235 c0.563,14.038-1.062,21.563-3.526,26.633C121.8,364.836,16.571,396.523,0,469.238h235.511H471.023z M188.275,278.52 c-1.311-1.302-2.607-2.612-3.896-3.923c-7.867-7.979-15.356-15.97-21.604-22.947l-7.834-42.873 c-10-59.027-7.306-102.58,7.961-129.814c1.266,4.178,5.44,8.958,16.675,12.405c24.533,7.52,72.616-10.143,80.467,21.257 c7.851,31.402,13.737,42.196,26.493,44.16c12.76,1.961,24.533-10.428,24.533,26.188c0,15.647,8.601,13.296,18.446,5.504 c-0.821,6.546-1.787,13.259-2.974,20.246l-7.838,42.919c-6.248,6.969-13.737,14.96-21.604,22.947 c-1.286,1.31-2.589,2.62-3.891,3.927c-1.318,1.318-2.653,2.621-3.987,3.923c-8.877,8.692-17.85,16.943-25.836,23.412 c-9.767,7.935-18.038,13.221-22.639,13.221c-2.477,0-6.007-1.535-10.255-4.156c-10.119-6.256-24.325-18.847-38.236-32.477 C190.928,281.145,189.594,279.842,188.275,278.52z M169.765,390.404c0-7.182,3.565-14.311,10.307-20.614l0.84-0.79 c1.663-1.479,3.519-2.913,5.512-4.268l1.176-1.19c2.817-3.551,5.677-7.137,7.574-13.529c1.737-5.818,2.641-14.086,2.028-26.649 c-0.367-7.605-1.302-16.799-2.974-28.096c8.871,8.355,18.083,16.351,26.383,22.237c8,5.683,15.128,9.417,20.129,9.417 c9.045,0,25.022-12.062,40.691-26.272c1.947-1.771,3.896-3.574,5.811-5.39c-0.196,1.318-0.36,2.561-0.537,3.831 c-4.26,30.688-2.812,45.231,0.706,54.004c1.871,4.669,4.315,7.751,6.765,10.824l0.865,0.806c2.076,1.41,3.972,2.881,5.65,4.384 l0.722,0.665c6.729,6.304,10.295,13.434,10.295,20.618c0,22.186-31.839,40.23-70.976,40.23 C201.6,430.622,169.765,412.592,169.765,390.404z"/></symbol></svg>